<?xml version="1.0" encoding="utf-8"?>
<!-- Generator: Adobe Illustrator 23.0.1, SVG Export Plug-In . SVG Version: 6.00 Build 0)  -->
<svg version="1.1" id="图层_1" xmlns="http://www.w3.org/2000/svg" xmlns:xlink="http://www.w3.org/1999/xlink" x="0px" y="0px"
	 viewBox="0 0 32 32" style="enable-background:new 0 0 32 32;" xml:space="preserve">
<path stroke="#434343" d="M14.8,10.6c-3.3,0-5.9,2.6-5.9,5.8s2.6,6,5.9,6c3.3,0,5.9-2.7,5.9-6C20.7,13.2,18.1,10.6,14.8,10.6L14.8,10.6z M14.8,21.4
	c-2.7,0-4.8-2.3-4.8-4.9s2.2-4.8,4.8-4.8s4.9,2.1,4.9,4.8S17.4,21.4,14.8,21.4L14.8,21.4z M24.1,23.6c-2,0-3.5-1-3.5-1
	c-0.3,0-0.5,0.2-0.5,0.5c0,0.3,0.2,0.5,0.5,0.5c0,0,1.5,1,3.5,1c1.1,0,2.7-2,3.9-2c2,0,3.4,1,3.4,1c0.3,0,0.5-0.2,0.5-0.5
	s-0.2-0.5-0.5-0.5c0,0-1.5-1-3.5-1C26.8,21.6,25.3,23.6,24.1,23.6L24.1,23.6z M1,26.2V8.4C1,8,1.3,7.7,1.7,7.7h6.6v0h1.6V5.9
	c0-0.4,0.3-0.7,0.7-0.7h8.5c0.4,0,0.7,0.3,0.7,0.7v1.8h2.8v0l5.4,0c0.4,0,0.7,0.3,0.7,0.7v11.1h1V8c0-0.7-0.6-1.4-1.4-1.4l-7.5,0
	V5.5c0-0.7-0.6-1.4-1.4-1.4l-9.1,0c-0.7,0-1.4,0.6-1.4,1.4v1.1H1.4C0.6,6.7,0,7.3,0,8v18.5c0,0.7,0.6,1.4,1.4,1.4h17.4v-1H1.7
	C1.3,26.9,1,26.6,1,26.2L1,26.2z M31.5,26.1c0,0-1.5-1-3.5-1c-1.2,0-2.7,2-3.9,2c-2,0-3.5-1-3.5-1c-0.3,0-0.5,0.2-0.5,0.5
	c0,0.3,0.2,0.5,0.5,0.5c0,0,1.5,1,3.5,1c1.1,0,2.7-2,3.9-2c2,0,3.4,1,3.4,1c0.3,0,0.5-0.2,0.5-0.5C32,26.3,31.8,26.1,31.5,26.1
	L31.5,26.1z"/>
</svg>
